# xmcd
#
# Track frame offsets:
#	150
#	16490
#	36145
#	52699
#	77726
#	91296
#	109158
#	129511
#	143240
#	157174
#
# Disc length: 2550 seconds
#
# Revision: 6
# Processed by: cddbd v1.5.1PL0 Copyright (c) Steve Scherf et al.
# Submitted via: EasyCDDAExtractor 8.2.1.1
#
DISCID=7b09f40a
DTITLE=Joss Stone - The Soul Sessions
DYEAR=2003
DGENRE=Neo-Soul
TTITLE0=The Chokin' Kind
TTITLE1=Super Duper Love (Are You Diggin' on Me?)
TTITLE2=Fell in Love with a Boy
TTITLE3=Victim of a Foolish Heart
TTITLE4=Dirty Man
TTITLE5=Some Kind of Wonderful
TTITLE6=I've Fallen in Love with You
TTITLE7=I Had a Dream
TTITLE8=All the King's Horses
TTITLE9=For the Love of You (Pts. 1 and 2)
EXTD=YEAR: 2003
EXTT0=
EXTT1=(Are you diggin' on me?) Pt.1
EXTT2=
EXTT3=
EXTT4=
EXTT5=
EXTT6=
EXTT7=
EXTT8=
EXTT9=
PLAYORDER=
